<svg width="1080" height="181" viewBox="0 0 1080 181" fill="none" xmlns="http://www.w3.org/2000/svg">
<path fill-rule="evenodd" clip-rule="evenodd" d="M288.606 0.710938L196.515 180.738H110.016L148.556 106.127H146.827C115.032 147.401 67.5931 174.572 0 180.738V107.159C0 107.159 43.2409 104.605 68.661 77.8799H0V0.71236H77.1676V64.1816L78.8996 64.1745L110.433 0.71236H168.793V63.7792L170.525 63.7763L203.241 0.710938H288.606Z" fill="#146EF5"/>
<path d="M790.78 160.867H815.632V18.2136H790.78V160.867Z" fill="#080808"/>
<path fill-rule="evenodd" clip-rule="evenodd" d="M653.772 159.41C659.174 161.656 664.666 162.778 670.25 162.778C679.475 162.778 687.728 160.533 695.011 156.042C702.294 151.551 707.938 145.36 711.944 137.47C715.95 129.52 717.952 120.507 717.952 110.433C717.952 100.358 715.889 91.3456 711.762 83.3952C707.635 75.4447 701.9 69.2846 694.556 64.9149C687.213 60.4845 678.868 58.2997 669.521 58.3604C663.574 58.3604 657.869 59.5135 652.407 61.8197C646.944 64.126 642.393 67.4032 638.751 71.6516C638.47 71.975 638.197 72.3017 637.932 72.6317V18.3047H612.988V160.867H637.75L637.7 147.548C638.341 148.334 639.025 149.101 639.753 149.851C643.698 153.917 648.371 157.104 653.772 159.41ZM679.262 136.378C675.196 138.866 670.553 140.11 665.334 140.11C660.175 140.11 655.441 138.836 651.132 136.287C646.823 133.677 643.394 130.127 640.845 125.636C638.357 121.145 637.113 116.047 637.113 110.342C637.052 104.637 638.266 99.5388 640.754 95.0478C643.303 90.496 646.732 86.9759 651.041 84.4876C655.35 81.9386 660.114 80.6945 665.334 80.7551C670.553 80.6945 675.196 81.9083 679.262 84.3966C683.389 86.8242 686.545 90.3139 688.73 94.8657C690.975 99.3568 692.098 104.515 692.098 110.342C692.098 116.168 690.975 121.327 688.73 125.818C686.545 130.309 683.389 133.829 679.262 136.378Z" fill="#080808"/>
<path d="M324.611 26.862H353.014L378.422 119.652L405.451 26.862H429.12L458.434 117.79L482.831 26.862H508.867L470.45 160.867H445.961L416.154 72.0376L388.791 160.867H364.029L324.611 26.862Z" fill="#080808"/>
<path fill-rule="evenodd" clip-rule="evenodd" d="M550.811 163.233C540.918 163.294 531.997 161.109 524.046 156.679C516.157 152.188 509.936 145.967 505.384 138.017C500.893 130.066 498.647 120.993 498.647 110.797C498.647 100.904 500.954 91.9525 505.566 83.9414C510.178 75.9303 516.43 69.6791 524.319 65.188C532.209 60.6969 541.009 58.4514 550.72 58.4514C561.644 58.4514 571.203 60.879 579.396 65.7343C587.65 70.5895 593.81 77.4779 597.876 86.3994C602.003 95.2602 603.49 105.426 602.337 116.896H524.358C524.576 121.466 525.716 125.623 527.779 129.368C530.085 133.495 533.302 136.712 537.428 139.018C541.555 141.324 546.168 142.477 551.266 142.477C555.15 142.417 558.761 141.749 562.099 140.475C565.437 139.139 568.259 137.349 570.566 135.103C572.932 132.858 574.601 130.309 575.572 127.456H601.609C600.031 134.436 596.875 140.657 592.141 146.119C587.407 151.52 581.459 155.738 574.298 158.773C567.136 161.807 559.307 163.294 550.811 163.233ZM527.87 91.8615C526.415 94.3977 525.408 97.1288 524.847 100.055H576.537C576.162 96.3583 575.021 92.9899 573.114 89.9498C570.93 86.369 567.956 83.6076 564.193 81.6655C560.43 79.6627 556.182 78.6613 551.448 78.6613C546.411 78.6613 541.829 79.8144 537.702 82.1207C533.575 84.4269 530.297 87.6739 527.87 91.8615Z" fill="#080808"/>
<path d="M736.25 60.5452C736.25 52.4127 738.102 45.1905 741.804 38.8787C745.506 32.5062 750.695 27.56 757.371 24.0399C764.107 20.4592 771.967 18.6081 780.949 18.4867V40.6084C776.761 40.6691 773.181 41.5491 770.207 43.2484C767.294 44.8871 765.048 47.2844 763.47 50.4403C762.017 53.3456 761.233 56.714 761.118 60.5452H780.403V81.5745H761.103V160.867H736.25V81.5745H720.228V60.5452H736.25Z" fill="#080808"/>
<path fill-rule="evenodd" clip-rule="evenodd" d="M878.811 163.051C868.676 163.051 859.603 160.836 851.591 156.406C843.641 151.915 837.39 145.724 832.838 137.835C828.347 129.884 826.101 120.872 826.101 110.797C826.101 100.662 828.347 91.6187 832.838 83.6683C837.39 75.6572 843.641 69.4364 851.591 65.006C859.603 60.5756 868.676 58.3604 878.811 58.3604C889.007 58.3604 898.111 60.5756 906.122 65.006C914.194 69.4364 920.475 75.6268 924.966 83.5773C929.457 91.5277 931.733 100.601 931.794 110.797C931.733 120.872 929.457 129.884 924.966 137.835C920.536 145.724 914.285 151.915 906.213 156.406C898.141 160.836 889.007 163.051 878.811 163.051ZM878.811 140.201C884.152 140.201 888.886 138.988 893.013 136.56C897.14 134.072 900.326 130.612 902.571 126.182C904.817 121.691 905.94 116.563 905.94 110.797C905.94 104.971 904.817 99.812 902.571 95.3209C900.326 90.8298 897.14 87.3704 893.013 84.9428C888.886 82.4545 884.152 81.2103 878.811 81.2103C873.531 81.2103 868.828 82.4545 864.701 84.9428C860.634 87.3704 857.478 90.8298 855.233 95.3209C852.987 99.812 851.895 104.971 851.956 110.797C851.956 116.563 853.078 121.691 855.324 126.182C857.63 130.612 860.786 134.072 864.792 136.56C868.858 138.988 873.531 140.201 878.811 140.201Z" fill="#080808"/>
<path d="M958.649 60.5452H930.975L960.925 160.867H985.141L1004.84 96.7915L1026.11 160.867H1049.96L1080 60.5452H1054.97L1037.93 122.989L1019.1 60.5452H994.882L976.141 124.364L958.649 60.5452Z" fill="#080808"/>
</svg>
